# xmcd CD database file
#
# Track frame offsets:
#	150
#	20240
#	42555
#	66382
#	84920
#	106180
#	128432
#	147240
#	168287
#	186865
#	207590
#	223470
#
# Disc length: 3256 seconds
#
# Revision: 1
# Processed by: cddbd v1.5.1PL0 Copyright (c) Steve Scherf et al.
# Submitted via: CDex 1.51
#
DISCID=b60cb60c
DTITLE=中澤裕子 - 第二章 〜強がり〜
DYEAR=2004
DGENRE=JPop
TTITLE0=DO MY BEST
TTITLE1=長良川の晴れ
TTITLE2=強がり
TTITLE3=東京美人
TTITLE4=上海の風
TTITLE5=GET ALONG WITH YOU
TTITLE6=心機一転〜CHANGING THE MIND〜
TTITLE7=二人暮し
TTITLE8=悔し涙 ぽろり
TTITLE9=元気のない日の子守唄
TTITLE10=純情行進曲
TTITLE11=ふるさと（中澤 Version）
EXTD=YEAR: 2004
EXTT0=
EXTT1=
EXTT2=
EXTT3=
EXTT4=
EXTT5=
EXTT6=
EXTT7=
EXTT8=
EXTT9=
EXTT10=
EXTT11=
PLAYORDER=
